# xmcd CD database file
#
# Track frame offsets:
#	150
#	20838
#	35268
#	53751
#	67854
#	83199
#	98622
#	112140
#	130370
#	139679
#
# Disc length: 2263 seconds
#
# Revision: 5
# Processed by: cddbd v1.5.2PL0 Copyright (c) Steve Scherf et al.
# Submitted via: CDex 1.70beta2
#
DISCID=8308d50a
DTITLE=Neil Young - Harvest
DYEAR=1972
DGENRE=Rock
TTITLE0=Out On The Weekend
TTITLE1=Harvest
TTITLE2=A Man Needs A Maid
TTITLE3=Heart Of Gold
TTITLE4=Are You Ready For The Country?
TTITLE5=Old Man
TTITLE6=There's A World
TTITLE7=Alabama
TTITLE8=The Needle And The Damage Done
TTITLE9=Words (Between The Lines Of Age)
EXTD=YEAR: 1972
EXTT0=
EXTT1=
EXTT2=
EXTT3=
EXTT4=
EXTT5=
EXTT6=
EXTT7=
EXTT8=
EXTT9=
PLAYORDER=
